<mxfile host="app.diagrams.net" modified="2023-05-30T21:36:38.938Z" agent="Mozilla/5.0 (Windows NT 10.0; Win64; x64) AppleWebKit/537.36 (KHTML, like Gecko) Chrome/113.0.0.0 Safari/537.36" etag="oV-d9ZEpwnFKEHaF4ORz" version="21.3.6" type="github">
  <diagram id="C5RBs43oDa-KdzZeNtuy" name="Page-1">
    <mxGraphModel dx="1434" dy="796" grid="1" gridSize="10" guides="1" tooltips="1" connect="1" arrows="1" fold="1" page="1" pageScale="1" pageWidth="827" pageHeight="1169" math="0" shadow="0">
      <root>
        <mxCell id="WIyWlLk6GJQsqaUBKTNV-0" />
        <mxCell id="WIyWlLk6GJQsqaUBKTNV-1" parent="WIyWlLk6GJQsqaUBKTNV-0" />
        <mxCell id="zkfFHV4jXpPFQw0GAbJ--0" value="HomePage" style="swimlane;fontStyle=2;align=center;verticalAlign=top;childLayout=stackLayout;horizontal=1;startSize=26;horizontalStack=0;resizeParent=1;resizeLast=0;collapsible=1;marginBottom=0;rounded=0;shadow=0;strokeWidth=1;" parent="WIyWlLk6GJQsqaUBKTNV-1" vertex="1">
          <mxGeometry x="270" y="30" width="165" height="210" as="geometry">
            <mxRectangle x="230" y="140" width="160" height="26" as="alternateBounds" />
          </mxGeometry>
        </mxCell>
        <mxCell id="Ss5F2WTiae59fG6rR6yu-41" value="Button: OpenTrainingplans" style="text;html=1;align=center;verticalAlign=middle;resizable=0;points=[];autosize=1;strokeColor=none;fillColor=none;" vertex="1" parent="zkfFHV4jXpPFQw0GAbJ--0">
          <mxGeometry y="26" width="165" height="30" as="geometry" />
        </mxCell>
        <mxCell id="Ss5F2WTiae59fG6rR6yu-42" value="Button: UserProfile" style="text;html=1;align=center;verticalAlign=middle;resizable=0;points=[];autosize=1;strokeColor=none;fillColor=none;labelBorderColor=none;fontStyle=0;perimeterSpacing=0;" vertex="1" parent="zkfFHV4jXpPFQw0GAbJ--0">
          <mxGeometry y="56" width="165" height="30" as="geometry" />
        </mxCell>
        <mxCell id="Ss5F2WTiae59fG6rR6yu-43" value="" style="endArrow=none;html=1;rounded=0;entryX=1.006;entryY=1.067;entryDx=0;entryDy=0;entryPerimeter=0;" edge="1" parent="zkfFHV4jXpPFQw0GAbJ--0" target="Ss5F2WTiae59fG6rR6yu-42">
          <mxGeometry width="50" height="50" relative="1" as="geometry">
            <mxPoint y="88" as="sourcePoint" />
            <mxPoint x="110" y="110" as="targetPoint" />
          </mxGeometry>
        </mxCell>
        <mxCell id="Ss5F2WTiae59fG6rR6yu-44" value="openTrainingplans()" style="text;html=1;align=center;verticalAlign=middle;resizable=0;points=[];autosize=1;strokeColor=none;fillColor=none;labelBorderColor=none;fontStyle=0;perimeterSpacing=0;" vertex="1" parent="zkfFHV4jXpPFQw0GAbJ--0">
          <mxGeometry y="86" width="165" height="30" as="geometry" />
        </mxCell>
        <mxCell id="Ss5F2WTiae59fG6rR6yu-45" value="openUserProfile()" style="text;html=1;align=center;verticalAlign=middle;resizable=0;points=[];autosize=1;strokeColor=none;fillColor=none;labelBorderColor=none;fontStyle=0;perimeterSpacing=0;" vertex="1" parent="zkfFHV4jXpPFQw0GAbJ--0">
          <mxGeometry y="116" width="165" height="30" as="geometry" />
        </mxCell>
        <mxCell id="Ss5F2WTiae59fG6rR6yu-46" style="text;html=1;align=center;verticalAlign=middle;resizable=0;points=[];autosize=1;strokeColor=none;fillColor=none;labelBorderColor=none;fontStyle=0;perimeterSpacing=0;" vertex="1" parent="zkfFHV4jXpPFQw0GAbJ--0">
          <mxGeometry y="146" width="165" height="30" as="geometry" />
        </mxCell>
        <mxCell id="Ss5F2WTiae59fG6rR6yu-32" value="n..n" style="edgeStyle=orthogonalEdgeStyle;rounded=0;orthogonalLoop=1;jettySize=auto;html=1;entryX=0.5;entryY=1;entryDx=0;entryDy=0;" edge="1" parent="WIyWlLk6GJQsqaUBKTNV-1" source="Ss5F2WTiae59fG6rR6yu-0" target="Ss5F2WTiae59fG6rR6yu-7">
          <mxGeometry relative="1" as="geometry" />
        </mxCell>
        <mxCell id="Ss5F2WTiae59fG6rR6yu-0" value="TrainingPlan" style="swimlane;fontStyle=2;align=center;verticalAlign=top;childLayout=stackLayout;horizontal=1;startSize=26;horizontalStack=0;resizeParent=1;resizeLast=0;collapsible=1;marginBottom=0;rounded=0;shadow=0;strokeWidth=1;" vertex="1" parent="WIyWlLk6GJQsqaUBKTNV-1">
          <mxGeometry x="490" y="230" width="340" height="326" as="geometry">
            <mxRectangle x="230" y="140" width="160" height="26" as="alternateBounds" />
          </mxGeometry>
        </mxCell>
        <mxCell id="Ss5F2WTiae59fG6rR6yu-1" value="String: name" style="text;html=1;align=center;verticalAlign=middle;resizable=0;points=[];autosize=1;strokeColor=none;fillColor=none;" vertex="1" parent="Ss5F2WTiae59fG6rR6yu-0">
          <mxGeometry y="26" width="340" height="30" as="geometry" />
        </mxCell>
        <mxCell id="Ss5F2WTiae59fG6rR6yu-2" value="List&amp;lt;Clickable Label&amp;gt;: Exercises&lt;br&gt;" style="text;html=1;align=center;verticalAlign=middle;resizable=0;points=[];autosize=1;strokeColor=none;fillColor=none;" vertex="1" parent="Ss5F2WTiae59fG6rR6yu-0">
          <mxGeometry y="56" width="340" height="30" as="geometry" />
        </mxCell>
        <mxCell id="Ss5F2WTiae59fG6rR6yu-51" value="Button: Start" style="text;html=1;align=center;verticalAlign=middle;resizable=0;points=[];autosize=1;strokeColor=none;fillColor=none;" vertex="1" parent="Ss5F2WTiae59fG6rR6yu-0">
          <mxGeometry y="86" width="340" height="30" as="geometry" />
        </mxCell>
        <mxCell id="Ss5F2WTiae59fG6rR6yu-101" value="Category[]: categories" style="text;html=1;align=center;verticalAlign=middle;resizable=0;points=[];autosize=1;strokeColor=none;fillColor=none;" vertex="1" parent="Ss5F2WTiae59fG6rR6yu-0">
          <mxGeometry y="116" width="340" height="30" as="geometry" />
        </mxCell>
        <mxCell id="Ss5F2WTiae59fG6rR6yu-52" value="?: Progress" style="text;html=1;align=center;verticalAlign=middle;resizable=0;points=[];autosize=1;strokeColor=none;fillColor=none;" vertex="1" parent="Ss5F2WTiae59fG6rR6yu-0">
          <mxGeometry y="146" width="340" height="30" as="geometry" />
        </mxCell>
        <mxCell id="Ss5F2WTiae59fG6rR6yu-69" value="loadProgress()" style="text;html=1;align=center;verticalAlign=middle;resizable=0;points=[];autosize=1;strokeColor=none;fillColor=none;" vertex="1" parent="Ss5F2WTiae59fG6rR6yu-0">
          <mxGeometry y="176" width="340" height="30" as="geometry" />
        </mxCell>
        <mxCell id="Ss5F2WTiae59fG6rR6yu-58" value="setProgress()" style="text;html=1;align=center;verticalAlign=middle;resizable=0;points=[];autosize=1;strokeColor=none;fillColor=none;" vertex="1" parent="Ss5F2WTiae59fG6rR6yu-0">
          <mxGeometry y="206" width="340" height="30" as="geometry" />
        </mxCell>
        <mxCell id="Ss5F2WTiae59fG6rR6yu-59" value="startTrainingPlan()" style="text;html=1;align=center;verticalAlign=middle;resizable=0;points=[];autosize=1;strokeColor=none;fillColor=none;" vertex="1" parent="Ss5F2WTiae59fG6rR6yu-0">
          <mxGeometry y="236" width="340" height="30" as="geometry" />
        </mxCell>
        <mxCell id="Ss5F2WTiae59fG6rR6yu-62" value="openExercise()" style="text;html=1;align=center;verticalAlign=middle;resizable=0;points=[];autosize=1;strokeColor=none;fillColor=none;" vertex="1" parent="Ss5F2WTiae59fG6rR6yu-0">
          <mxGeometry y="266" width="340" height="30" as="geometry" />
        </mxCell>
        <mxCell id="Ss5F2WTiae59fG6rR6yu-63" value="endTraining()" style="text;html=1;align=center;verticalAlign=middle;resizable=0;points=[];autosize=1;strokeColor=none;fillColor=none;" vertex="1" parent="Ss5F2WTiae59fG6rR6yu-0">
          <mxGeometry y="296" width="340" height="30" as="geometry" />
        </mxCell>
        <mxCell id="Ss5F2WTiae59fG6rR6yu-57" value="" style="endArrow=none;html=1;rounded=0;entryX=0.997;entryY=0;entryDx=0;entryDy=0;entryPerimeter=0;exitX=0;exitY=1.067;exitDx=0;exitDy=0;exitPerimeter=0;" edge="1" parent="Ss5F2WTiae59fG6rR6yu-0" source="Ss5F2WTiae59fG6rR6yu-52" target="Ss5F2WTiae59fG6rR6yu-69">
          <mxGeometry width="50" height="50" relative="1" as="geometry">
            <mxPoint y="147" as="sourcePoint" />
            <mxPoint x="110" y="220" as="targetPoint" />
          </mxGeometry>
        </mxCell>
        <mxCell id="Ss5F2WTiae59fG6rR6yu-74" style="edgeStyle=orthogonalEdgeStyle;rounded=0;orthogonalLoop=1;jettySize=auto;html=1;entryX=0.529;entryY=1;entryDx=0;entryDy=0;entryPerimeter=0;" edge="1" parent="WIyWlLk6GJQsqaUBKTNV-1" source="Ss5F2WTiae59fG6rR6yu-4" target="Ss5F2WTiae59fG6rR6yu-63">
          <mxGeometry relative="1" as="geometry" />
        </mxCell>
        <mxCell id="Ss5F2WTiae59fG6rR6yu-4" value="Exercise" style="swimlane;fontStyle=2;align=center;verticalAlign=top;childLayout=stackLayout;horizontal=1;startSize=26;horizontalStack=0;resizeParent=1;resizeLast=0;collapsible=1;marginBottom=0;rounded=0;shadow=0;strokeWidth=1;" vertex="1" parent="WIyWlLk6GJQsqaUBKTNV-1">
          <mxGeometry x="550" y="670" width="240" height="386" as="geometry">
            <mxRectangle x="230" y="140" width="160" height="26" as="alternateBounds" />
          </mxGeometry>
        </mxCell>
        <mxCell id="Ss5F2WTiae59fG6rR6yu-5" value="+ int: id" style="text;html=1;align=center;verticalAlign=middle;resizable=0;points=[];autosize=1;strokeColor=none;fillColor=none;" vertex="1" parent="Ss5F2WTiae59fG6rR6yu-4">
          <mxGeometry y="26" width="240" height="30" as="geometry" />
        </mxCell>
        <mxCell id="Ss5F2WTiae59fG6rR6yu-6" value="Desctiption desc" style="text;html=1;align=center;verticalAlign=middle;resizable=0;points=[];autosize=1;strokeColor=none;fillColor=none;" vertex="1" parent="Ss5F2WTiae59fG6rR6yu-4">
          <mxGeometry y="56" width="240" height="30" as="geometry" />
        </mxCell>
        <mxCell id="Ss5F2WTiae59fG6rR6yu-70" value="List &amp;lt;Clickable Label&amp;gt;: FocusPoints" style="text;html=1;align=center;verticalAlign=middle;resizable=0;points=[];autosize=1;strokeColor=none;fillColor=none;" vertex="1" parent="Ss5F2WTiae59fG6rR6yu-4">
          <mxGeometry y="86" width="240" height="30" as="geometry" />
        </mxCell>
        <mxCell id="Ss5F2WTiae59fG6rR6yu-71" value="ExecutionRecord[]: records" style="text;html=1;align=center;verticalAlign=middle;resizable=0;points=[];autosize=1;strokeColor=none;fillColor=none;" vertex="1" parent="Ss5F2WTiae59fG6rR6yu-4">
          <mxGeometry y="116" width="240" height="30" as="geometry" />
        </mxCell>
        <mxCell id="Ss5F2WTiae59fG6rR6yu-96" value="?: Progress" style="text;html=1;align=center;verticalAlign=middle;resizable=0;points=[];autosize=1;strokeColor=none;fillColor=none;" vertex="1" parent="Ss5F2WTiae59fG6rR6yu-4">
          <mxGeometry y="146" width="240" height="30" as="geometry" />
        </mxCell>
        <mxCell id="Ss5F2WTiae59fG6rR6yu-72" value="Category[]: categorys" style="text;html=1;align=center;verticalAlign=middle;resizable=0;points=[];autosize=1;strokeColor=none;fillColor=none;" vertex="1" parent="Ss5F2WTiae59fG6rR6yu-4">
          <mxGeometry y="176" width="240" height="30" as="geometry" />
        </mxCell>
        <mxCell id="Ss5F2WTiae59fG6rR6yu-90" value="displayExercise()" style="text;html=1;align=center;verticalAlign=middle;resizable=0;points=[];autosize=1;strokeColor=none;fillColor=none;" vertex="1" parent="Ss5F2WTiae59fG6rR6yu-4">
          <mxGeometry y="206" width="240" height="30" as="geometry" />
        </mxCell>
        <mxCell id="Ss5F2WTiae59fG6rR6yu-89" value="startExercise()" style="text;html=1;align=center;verticalAlign=middle;resizable=0;points=[];autosize=1;strokeColor=none;fillColor=none;" vertex="1" parent="Ss5F2WTiae59fG6rR6yu-4">
          <mxGeometry y="236" width="240" height="30" as="geometry" />
        </mxCell>
        <mxCell id="Ss5F2WTiae59fG6rR6yu-88" value="endExercise()" style="text;html=1;align=center;verticalAlign=middle;resizable=0;points=[];autosize=1;strokeColor=none;fillColor=none;" vertex="1" parent="Ss5F2WTiae59fG6rR6yu-4">
          <mxGeometry y="266" width="240" height="30" as="geometry" />
        </mxCell>
        <mxCell id="Ss5F2WTiae59fG6rR6yu-94" value="setProgress()" style="text;html=1;align=center;verticalAlign=middle;resizable=0;points=[];autosize=1;strokeColor=none;fillColor=none;" vertex="1" parent="Ss5F2WTiae59fG6rR6yu-4">
          <mxGeometry y="296" width="240" height="30" as="geometry" />
        </mxCell>
        <mxCell id="Ss5F2WTiae59fG6rR6yu-87" value="getProgress()" style="text;html=1;align=center;verticalAlign=middle;resizable=0;points=[];autosize=1;strokeColor=none;fillColor=none;" vertex="1" parent="Ss5F2WTiae59fG6rR6yu-4">
          <mxGeometry y="326" width="240" height="30" as="geometry" />
        </mxCell>
        <mxCell id="Ss5F2WTiae59fG6rR6yu-122" value="createExecutionRecord()" style="text;html=1;align=center;verticalAlign=middle;resizable=0;points=[];autosize=1;strokeColor=none;fillColor=none;" vertex="1" parent="Ss5F2WTiae59fG6rR6yu-4">
          <mxGeometry y="356" width="240" height="30" as="geometry" />
        </mxCell>
        <mxCell id="Ss5F2WTiae59fG6rR6yu-91" value="" style="endArrow=none;html=1;rounded=0;exitX=0;exitY=1;exitDx=0;exitDy=0;exitPerimeter=0;entryX=0.992;entryY=0.967;entryDx=0;entryDy=0;entryPerimeter=0;" edge="1" parent="Ss5F2WTiae59fG6rR6yu-4" source="Ss5F2WTiae59fG6rR6yu-72" target="Ss5F2WTiae59fG6rR6yu-72">
          <mxGeometry width="50" height="50" relative="1" as="geometry">
            <mxPoint x="120" y="80" as="sourcePoint" />
            <mxPoint x="170" y="30" as="targetPoint" />
          </mxGeometry>
        </mxCell>
        <mxCell id="Ss5F2WTiae59fG6rR6yu-7" value="TrainingPlanOverview" style="swimlane;fontStyle=2;align=center;verticalAlign=top;childLayout=stackLayout;horizontal=1;startSize=26;horizontalStack=0;resizeParent=1;resizeLast=0;collapsible=1;marginBottom=0;rounded=0;shadow=0;strokeWidth=1;" vertex="1" parent="WIyWlLk6GJQsqaUBKTNV-1">
          <mxGeometry x="520" y="30" width="310" height="146" as="geometry">
            <mxRectangle x="230" y="140" width="160" height="26" as="alternateBounds" />
          </mxGeometry>
        </mxCell>
        <mxCell id="Ss5F2WTiae59fG6rR6yu-8" value="String: name" style="text;html=1;align=center;verticalAlign=middle;resizable=0;points=[];autosize=1;strokeColor=none;fillColor=none;" vertex="1" parent="Ss5F2WTiae59fG6rR6yu-7">
          <mxGeometry y="26" width="310" height="30" as="geometry" />
        </mxCell>
        <mxCell id="Ss5F2WTiae59fG6rR6yu-9" value="List&amp;lt;Clickable Label&amp;gt;: TrainingPlans" style="text;html=1;align=center;verticalAlign=middle;resizable=0;points=[];autosize=1;strokeColor=none;fillColor=none;" vertex="1" parent="Ss5F2WTiae59fG6rR6yu-7">
          <mxGeometry y="56" width="310" height="30" as="geometry" />
        </mxCell>
        <mxCell id="Ss5F2WTiae59fG6rR6yu-48" value="openTrainingplan()" style="text;html=1;align=center;verticalAlign=middle;resizable=0;points=[];autosize=1;strokeColor=none;fillColor=none;" vertex="1" parent="Ss5F2WTiae59fG6rR6yu-7">
          <mxGeometry y="86" width="310" height="30" as="geometry" />
        </mxCell>
        <mxCell id="Ss5F2WTiae59fG6rR6yu-49" value="loadTrainingPlansFromFile()" style="text;html=1;align=center;verticalAlign=middle;resizable=0;points=[];autosize=1;strokeColor=none;fillColor=none;" vertex="1" parent="Ss5F2WTiae59fG6rR6yu-7">
          <mxGeometry y="116" width="310" height="30" as="geometry" />
        </mxCell>
        <mxCell id="Ss5F2WTiae59fG6rR6yu-47" value="" style="endArrow=none;html=1;rounded=0;exitX=0.015;exitY=0.967;exitDx=0;exitDy=0;exitPerimeter=0;entryX=0.975;entryY=0.933;entryDx=0;entryDy=0;entryPerimeter=0;" edge="1" parent="Ss5F2WTiae59fG6rR6yu-7" source="Ss5F2WTiae59fG6rR6yu-9" target="Ss5F2WTiae59fG6rR6yu-9">
          <mxGeometry width="50" height="50" relative="1" as="geometry">
            <mxPoint x="-190" y="160" as="sourcePoint" />
            <mxPoint x="-140" y="110" as="targetPoint" />
          </mxGeometry>
        </mxCell>
        <mxCell id="Ss5F2WTiae59fG6rR6yu-10" value="static UserProfile" style="swimlane;fontStyle=2;align=center;verticalAlign=top;childLayout=stackLayout;horizontal=1;startSize=26;horizontalStack=0;resizeParent=1;resizeLast=0;collapsible=1;marginBottom=0;rounded=0;shadow=0;strokeWidth=1;" vertex="1" parent="WIyWlLk6GJQsqaUBKTNV-1">
          <mxGeometry x="20" y="160" width="160" height="138" as="geometry">
            <mxRectangle x="230" y="140" width="160" height="26" as="alternateBounds" />
          </mxGeometry>
        </mxCell>
        <mxCell id="Ss5F2WTiae59fG6rR6yu-11" value="String: UserName" style="text;html=1;align=center;verticalAlign=middle;resizable=0;points=[];autosize=1;strokeColor=none;fillColor=none;" vertex="1" parent="Ss5F2WTiae59fG6rR6yu-10">
          <mxGeometry y="26" width="160" height="30" as="geometry" />
        </mxCell>
        <mxCell id="Ss5F2WTiae59fG6rR6yu-12" value="String: Language" style="text;html=1;align=center;verticalAlign=middle;resizable=0;points=[];autosize=1;strokeColor=none;fillColor=none;" vertex="1" parent="Ss5F2WTiae59fG6rR6yu-10">
          <mxGeometry y="56" width="160" height="30" as="geometry" />
        </mxCell>
        <mxCell id="Ss5F2WTiae59fG6rR6yu-92" value="static getLanguage()" style="text;html=1;align=center;verticalAlign=middle;resizable=0;points=[];autosize=1;strokeColor=none;fillColor=none;" vertex="1" parent="Ss5F2WTiae59fG6rR6yu-10">
          <mxGeometry y="86" width="160" height="30" as="geometry" />
        </mxCell>
        <mxCell id="Ss5F2WTiae59fG6rR6yu-93" value="" style="endArrow=none;html=1;rounded=0;exitX=0;exitY=0.1;exitDx=0;exitDy=0;exitPerimeter=0;entryX=0.969;entryY=0.067;entryDx=0;entryDy=0;entryPerimeter=0;" edge="1" parent="Ss5F2WTiae59fG6rR6yu-10" source="Ss5F2WTiae59fG6rR6yu-92" target="Ss5F2WTiae59fG6rR6yu-92">
          <mxGeometry width="50" height="50" relative="1" as="geometry">
            <mxPoint x="650" y="380" as="sourcePoint" />
            <mxPoint x="700" y="330" as="targetPoint" />
          </mxGeometry>
        </mxCell>
        <mxCell id="Ss5F2WTiae59fG6rR6yu-125" style="edgeStyle=orthogonalEdgeStyle;rounded=0;orthogonalLoop=1;jettySize=auto;html=1;" edge="1" parent="WIyWlLk6GJQsqaUBKTNV-1" source="Ss5F2WTiae59fG6rR6yu-13" target="Ss5F2WTiae59fG6rR6yu-4">
          <mxGeometry relative="1" as="geometry">
            <Array as="points">
              <mxPoint x="670" y="1180" />
              <mxPoint x="670" y="1180" />
            </Array>
          </mxGeometry>
        </mxCell>
        <mxCell id="Ss5F2WTiae59fG6rR6yu-13" value="FocusPoint" style="swimlane;fontStyle=2;align=center;verticalAlign=top;childLayout=stackLayout;horizontal=1;startSize=26;horizontalStack=0;resizeParent=1;resizeLast=0;collapsible=1;marginBottom=0;rounded=0;shadow=0;strokeWidth=1;" vertex="1" parent="WIyWlLk6GJQsqaUBKTNV-1">
          <mxGeometry x="590" y="1210" width="160" height="326" as="geometry">
            <mxRectangle x="230" y="140" width="160" height="26" as="alternateBounds" />
          </mxGeometry>
        </mxCell>
        <mxCell id="Ss5F2WTiae59fG6rR6yu-14" value="String: Name" style="text;html=1;align=center;verticalAlign=middle;resizable=0;points=[];autosize=1;strokeColor=none;fillColor=none;" vertex="1" parent="Ss5F2WTiae59fG6rR6yu-13">
          <mxGeometry y="26" width="160" height="30" as="geometry" />
        </mxCell>
        <mxCell id="Ss5F2WTiae59fG6rR6yu-115" value="Image: Illustration" style="text;html=1;align=center;verticalAlign=middle;resizable=0;points=[];autosize=1;strokeColor=none;fillColor=none;" vertex="1" parent="Ss5F2WTiae59fG6rR6yu-13">
          <mxGeometry y="56" width="160" height="30" as="geometry" />
        </mxCell>
        <mxCell id="Ss5F2WTiae59fG6rR6yu-116" value="String: Content EN" style="text;html=1;align=center;verticalAlign=middle;resizable=0;points=[];autosize=1;strokeColor=none;fillColor=none;" vertex="1" parent="Ss5F2WTiae59fG6rR6yu-13">
          <mxGeometry y="86" width="160" height="30" as="geometry" />
        </mxCell>
        <mxCell id="Ss5F2WTiae59fG6rR6yu-117" value="String: Content DE" style="text;html=1;align=center;verticalAlign=middle;resizable=0;points=[];autosize=1;strokeColor=none;fillColor=none;" vertex="1" parent="Ss5F2WTiae59fG6rR6yu-13">
          <mxGeometry y="116" width="160" height="30" as="geometry" />
        </mxCell>
        <mxCell id="Ss5F2WTiae59fG6rR6yu-112" value="displayFocusPoint()" style="text;html=1;align=center;verticalAlign=middle;resizable=0;points=[];autosize=1;strokeColor=none;fillColor=none;" vertex="1" parent="Ss5F2WTiae59fG6rR6yu-13">
          <mxGeometry y="146" width="160" height="30" as="geometry" />
        </mxCell>
        <mxCell id="Ss5F2WTiae59fG6rR6yu-118" value="" style="endArrow=none;html=1;rounded=0;exitX=0.019;exitY=0;exitDx=0;exitDy=0;exitPerimeter=0;entryX=0.994;entryY=0.033;entryDx=0;entryDy=0;entryPerimeter=0;" edge="1" parent="Ss5F2WTiae59fG6rR6yu-13" source="Ss5F2WTiae59fG6rR6yu-112" target="Ss5F2WTiae59fG6rR6yu-112">
          <mxGeometry width="50" height="50" relative="1" as="geometry">
            <mxPoint x="140" y="30" as="sourcePoint" />
            <mxPoint x="190" y="-20" as="targetPoint" />
          </mxGeometry>
        </mxCell>
        <mxCell id="Ss5F2WTiae59fG6rR6yu-50" value="n..n" style="edgeStyle=orthogonalEdgeStyle;rounded=0;orthogonalLoop=1;jettySize=auto;html=1;entryX=1;entryY=0.367;entryDx=0;entryDy=0;entryPerimeter=0;" edge="1" parent="WIyWlLk6GJQsqaUBKTNV-1" source="Ss5F2WTiae59fG6rR6yu-17" target="Ss5F2WTiae59fG6rR6yu-2">
          <mxGeometry relative="1" as="geometry" />
        </mxCell>
        <mxCell id="Ss5F2WTiae59fG6rR6yu-17" value="Category" style="swimlane;fontStyle=2;align=center;verticalAlign=top;childLayout=stackLayout;horizontal=1;startSize=26;horizontalStack=0;resizeParent=1;resizeLast=0;collapsible=1;marginBottom=0;rounded=0;shadow=0;strokeWidth=1;" vertex="1" parent="WIyWlLk6GJQsqaUBKTNV-1">
          <mxGeometry x="1020" y="710" width="160" height="206" as="geometry">
            <mxRectangle x="230" y="140" width="160" height="26" as="alternateBounds" />
          </mxGeometry>
        </mxCell>
        <mxCell id="Ss5F2WTiae59fG6rR6yu-18" value="String: Type" style="text;html=1;align=center;verticalAlign=middle;resizable=0;points=[];autosize=1;strokeColor=none;fillColor=none;" vertex="1" parent="Ss5F2WTiae59fG6rR6yu-17">
          <mxGeometry y="26" width="160" height="30" as="geometry" />
        </mxCell>
        <mxCell id="Ss5F2WTiae59fG6rR6yu-97" value="String: Difficulty" style="text;html=1;align=center;verticalAlign=middle;resizable=0;points=[];autosize=1;strokeColor=none;fillColor=none;" vertex="1" parent="Ss5F2WTiae59fG6rR6yu-17">
          <mxGeometry y="56" width="160" height="30" as="geometry" />
        </mxCell>
        <mxCell id="Ss5F2WTiae59fG6rR6yu-100" style="text;html=1;align=center;verticalAlign=middle;resizable=0;points=[];autosize=1;strokeColor=none;fillColor=none;" vertex="1" parent="Ss5F2WTiae59fG6rR6yu-17">
          <mxGeometry y="86" width="160" height="30" as="geometry" />
        </mxCell>
        <mxCell id="Ss5F2WTiae59fG6rR6yu-99" style="text;html=1;align=center;verticalAlign=middle;resizable=0;points=[];autosize=1;strokeColor=none;fillColor=none;" vertex="1" parent="Ss5F2WTiae59fG6rR6yu-17">
          <mxGeometry y="116" width="160" height="30" as="geometry" />
        </mxCell>
        <mxCell id="Ss5F2WTiae59fG6rR6yu-98" style="text;html=1;align=center;verticalAlign=middle;resizable=0;points=[];autosize=1;strokeColor=none;fillColor=none;" vertex="1" parent="Ss5F2WTiae59fG6rR6yu-17">
          <mxGeometry y="146" width="160" height="30" as="geometry" />
        </mxCell>
        <mxCell id="Ss5F2WTiae59fG6rR6yu-19" style="text;html=1;align=center;verticalAlign=middle;resizable=0;points=[];autosize=1;strokeColor=none;fillColor=none;" vertex="1" parent="Ss5F2WTiae59fG6rR6yu-17">
          <mxGeometry y="176" width="160" height="30" as="geometry" />
        </mxCell>
        <mxCell id="Ss5F2WTiae59fG6rR6yu-124" style="edgeStyle=orthogonalEdgeStyle;rounded=0;orthogonalLoop=1;jettySize=auto;html=1;" edge="1" parent="WIyWlLk6GJQsqaUBKTNV-1" source="Ss5F2WTiae59fG6rR6yu-20" target="Ss5F2WTiae59fG6rR6yu-4">
          <mxGeometry relative="1" as="geometry">
            <Array as="points">
              <mxPoint x="990" y="1120" />
              <mxPoint x="670" y="1120" />
            </Array>
          </mxGeometry>
        </mxCell>
        <mxCell id="Ss5F2WTiae59fG6rR6yu-20" value="ExecutionRecord" style="swimlane;fontStyle=2;align=center;verticalAlign=top;childLayout=stackLayout;horizontal=1;startSize=26;horizontalStack=0;resizeParent=1;resizeLast=0;collapsible=1;marginBottom=0;rounded=0;shadow=0;strokeWidth=1;" vertex="1" parent="WIyWlLk6GJQsqaUBKTNV-1">
          <mxGeometry x="910" y="1220" width="160" height="146" as="geometry">
            <mxRectangle x="230" y="140" width="160" height="26" as="alternateBounds" />
          </mxGeometry>
        </mxCell>
        <mxCell id="Ss5F2WTiae59fG6rR6yu-21" value="int: exerciseID" style="text;html=1;align=center;verticalAlign=middle;resizable=0;points=[];autosize=1;strokeColor=none;fillColor=none;" vertex="1" parent="Ss5F2WTiae59fG6rR6yu-20">
          <mxGeometry y="26" width="160" height="30" as="geometry" />
        </mxCell>
        <mxCell id="Ss5F2WTiae59fG6rR6yu-22" value="int: repetitions" style="text;html=1;align=center;verticalAlign=middle;resizable=0;points=[];autosize=1;strokeColor=none;fillColor=none;" vertex="1" parent="Ss5F2WTiae59fG6rR6yu-20">
          <mxGeometry y="56" width="160" height="30" as="geometry" />
        </mxCell>
        <mxCell id="Ss5F2WTiae59fG6rR6yu-120" value="int: shotsMade" style="text;html=1;align=center;verticalAlign=middle;resizable=0;points=[];autosize=1;strokeColor=none;fillColor=none;" vertex="1" parent="Ss5F2WTiae59fG6rR6yu-20">
          <mxGeometry y="86" width="160" height="30" as="geometry" />
        </mxCell>
        <mxCell id="Ss5F2WTiae59fG6rR6yu-119" value="Date: dateofExecution" style="text;html=1;align=center;verticalAlign=middle;resizable=0;points=[];autosize=1;strokeColor=none;fillColor=none;" vertex="1" parent="Ss5F2WTiae59fG6rR6yu-20">
          <mxGeometry y="116" width="160" height="30" as="geometry" />
        </mxCell>
        <mxCell id="Ss5F2WTiae59fG6rR6yu-34" value="" style="endArrow=none;dashed=1;html=1;dashPattern=1 3;strokeWidth=2;rounded=0;exitX=0.5;exitY=0;exitDx=0;exitDy=0;entryX=0;entryY=0.5;entryDx=0;entryDy=0;" edge="1" parent="WIyWlLk6GJQsqaUBKTNV-1" source="Ss5F2WTiae59fG6rR6yu-10" target="zkfFHV4jXpPFQw0GAbJ--0">
          <mxGeometry width="50" height="50" relative="1" as="geometry">
            <mxPoint x="260" y="370" as="sourcePoint" />
            <mxPoint x="310" y="320" as="targetPoint" />
          </mxGeometry>
        </mxCell>
        <mxCell id="Ss5F2WTiae59fG6rR6yu-36" value="" style="endArrow=none;dashed=1;html=1;dashPattern=1 3;strokeWidth=2;rounded=0;exitX=1;exitY=0.5;exitDx=0;exitDy=0;entryX=0;entryY=0.75;entryDx=0;entryDy=0;" edge="1" parent="WIyWlLk6GJQsqaUBKTNV-1" source="zkfFHV4jXpPFQw0GAbJ--0" target="Ss5F2WTiae59fG6rR6yu-7">
          <mxGeometry width="50" height="50" relative="1" as="geometry">
            <mxPoint x="260" y="370" as="sourcePoint" />
            <mxPoint x="310" y="320" as="targetPoint" />
          </mxGeometry>
        </mxCell>
        <mxCell id="Ss5F2WTiae59fG6rR6yu-109" style="edgeStyle=orthogonalEdgeStyle;rounded=0;orthogonalLoop=1;jettySize=auto;html=1;entryX=0.5;entryY=1;entryDx=0;entryDy=0;" edge="1" parent="WIyWlLk6GJQsqaUBKTNV-1" source="Ss5F2WTiae59fG6rR6yu-37" target="Ss5F2WTiae59fG6rR6yu-4">
          <mxGeometry relative="1" as="geometry">
            <Array as="points">
              <mxPoint x="300" y="1120" />
              <mxPoint x="670" y="1120" />
            </Array>
          </mxGeometry>
        </mxCell>
        <mxCell id="Ss5F2WTiae59fG6rR6yu-37" value="Description" style="swimlane;fontStyle=2;align=center;verticalAlign=top;childLayout=stackLayout;horizontal=1;startSize=26;horizontalStack=0;resizeParent=1;resizeLast=0;collapsible=1;marginBottom=0;rounded=0;shadow=0;strokeWidth=1;" vertex="1" parent="WIyWlLk6GJQsqaUBKTNV-1">
          <mxGeometry x="210" y="1210" width="180" height="266" as="geometry">
            <mxRectangle x="230" y="140" width="160" height="26" as="alternateBounds" />
          </mxGeometry>
        </mxCell>
        <mxCell id="Ss5F2WTiae59fG6rR6yu-38" value="String: Name" style="text;html=1;align=center;verticalAlign=middle;resizable=0;points=[];autosize=1;strokeColor=none;fillColor=none;" vertex="1" parent="Ss5F2WTiae59fG6rR6yu-37">
          <mxGeometry y="26" width="180" height="30" as="geometry" />
        </mxCell>
        <mxCell id="Ss5F2WTiae59fG6rR6yu-103" value="Image: Illustration" style="text;html=1;align=center;verticalAlign=middle;resizable=0;points=[];autosize=1;strokeColor=none;fillColor=none;" vertex="1" parent="Ss5F2WTiae59fG6rR6yu-37">
          <mxGeometry y="56" width="180" height="30" as="geometry" />
        </mxCell>
        <mxCell id="Ss5F2WTiae59fG6rR6yu-102" value="String: contentEN" style="text;html=1;align=center;verticalAlign=middle;resizable=0;points=[];autosize=1;strokeColor=none;fillColor=none;" vertex="1" parent="Ss5F2WTiae59fG6rR6yu-37">
          <mxGeometry y="86" width="180" height="30" as="geometry" />
        </mxCell>
        <mxCell id="Ss5F2WTiae59fG6rR6yu-39" value="String: contentDE" style="text;html=1;align=center;verticalAlign=middle;resizable=0;points=[];autosize=1;strokeColor=none;fillColor=none;" vertex="1" parent="Ss5F2WTiae59fG6rR6yu-37">
          <mxGeometry y="116" width="180" height="30" as="geometry" />
        </mxCell>
        <mxCell id="Ss5F2WTiae59fG6rR6yu-121" value="int: repetitions" style="text;html=1;align=center;verticalAlign=middle;resizable=0;points=[];autosize=1;strokeColor=none;fillColor=none;" vertex="1" parent="Ss5F2WTiae59fG6rR6yu-37">
          <mxGeometry y="146" width="180" height="30" as="geometry" />
        </mxCell>
        <mxCell id="Ss5F2WTiae59fG6rR6yu-106" value="String: passingThreshold" style="text;html=1;align=center;verticalAlign=middle;resizable=0;points=[];autosize=1;strokeColor=none;fillColor=none;" vertex="1" parent="Ss5F2WTiae59fG6rR6yu-37">
          <mxGeometry y="176" width="180" height="30" as="geometry" />
        </mxCell>
        <mxCell id="Ss5F2WTiae59fG6rR6yu-105" value="displayDescription()" style="text;html=1;align=center;verticalAlign=middle;resizable=0;points=[];autosize=1;strokeColor=none;fillColor=none;" vertex="1" parent="Ss5F2WTiae59fG6rR6yu-37">
          <mxGeometry y="206" width="180" height="30" as="geometry" />
        </mxCell>
        <mxCell id="Ss5F2WTiae59fG6rR6yu-104" style="text;html=1;align=center;verticalAlign=middle;resizable=0;points=[];autosize=1;strokeColor=none;fillColor=none;" vertex="1" parent="Ss5F2WTiae59fG6rR6yu-37">
          <mxGeometry y="236" width="180" height="30" as="geometry" />
        </mxCell>
        <mxCell id="Ss5F2WTiae59fG6rR6yu-108" value="" style="endArrow=none;html=1;rounded=0;exitX=0;exitY=0.167;exitDx=0;exitDy=0;exitPerimeter=0;entryX=1.006;entryY=0.167;entryDx=0;entryDy=0;entryPerimeter=0;" edge="1" parent="Ss5F2WTiae59fG6rR6yu-37" source="Ss5F2WTiae59fG6rR6yu-105" target="Ss5F2WTiae59fG6rR6yu-105">
          <mxGeometry width="50" height="50" relative="1" as="geometry">
            <mxPoint x="210" y="210" as="sourcePoint" />
            <mxPoint x="260" y="160" as="targetPoint" />
          </mxGeometry>
        </mxCell>
        <mxCell id="Ss5F2WTiae59fG6rR6yu-75" value="n..n" style="edgeStyle=orthogonalEdgeStyle;rounded=0;orthogonalLoop=1;jettySize=auto;html=1;entryX=1.004;entryY=0.433;entryDx=0;entryDy=0;entryPerimeter=0;" edge="1" parent="WIyWlLk6GJQsqaUBKTNV-1" source="Ss5F2WTiae59fG6rR6yu-19" target="Ss5F2WTiae59fG6rR6yu-70">
          <mxGeometry relative="1" as="geometry" />
        </mxCell>
        <mxCell id="Ss5F2WTiae59fG6rR6yu-77" value="" style="verticalLabelPosition=bottom;verticalAlign=top;html=1;shape=mxgraph.basic.polygon;polyCoords=[[0.25,0],[0.75,0],[1,0.25],[1,0.75],[0.75,1],[0.25,1],[0,0.75],[0,0.25]];polyline=0;fillColor=#dae8fc;strokeColor=#6c8ebf;" vertex="1" parent="WIyWlLk6GJQsqaUBKTNV-1">
          <mxGeometry x="550" y="1880" width="410" height="360" as="geometry" />
        </mxCell>
        <mxCell id="Ss5F2WTiae59fG6rR6yu-79" value="" style="verticalLabelPosition=bottom;verticalAlign=top;html=1;shape=mxgraph.basic.polygon;polyCoords=[[0.25,0],[0.75,0],[1,0.25],[1,0.75],[0.75,1],[0.25,1],[0,0.75],[0,0.25]];polyline=0;fillColor=#d5e8d4;strokeColor=#82b366;" vertex="1" parent="WIyWlLk6GJQsqaUBKTNV-1">
          <mxGeometry x="635" y="1940" width="210" height="200" as="geometry" />
        </mxCell>
        <mxCell id="Ss5F2WTiae59fG6rR6yu-78" value="" style="verticalLabelPosition=bottom;verticalAlign=top;html=1;shape=mxgraph.basic.donut;dx=25;fillColor=#ffe6cc;strokeColor=#d79b00;" vertex="1" parent="WIyWlLk6GJQsqaUBKTNV-1">
          <mxGeometry x="747" y="2000" width="80" height="80" as="geometry" />
        </mxCell>
        <mxCell id="Ss5F2WTiae59fG6rR6yu-80" value="Actor" style="shape=umlActor;verticalLabelPosition=bottom;verticalAlign=top;html=1;outlineConnect=0;" vertex="1" parent="WIyWlLk6GJQsqaUBKTNV-1">
          <mxGeometry x="280" y="1980" width="30" height="60" as="geometry" />
        </mxCell>
        <mxCell id="Ss5F2WTiae59fG6rR6yu-81" value="20 Meter" style="endArrow=classic;startArrow=classic;html=1;rounded=0;exitX=1;exitY=1;exitDx=0;exitDy=0;exitPerimeter=0;" edge="1" parent="WIyWlLk6GJQsqaUBKTNV-1" source="Ss5F2WTiae59fG6rR6yu-80" target="Ss5F2WTiae59fG6rR6yu-79">
          <mxGeometry width="50" height="50" relative="1" as="geometry">
            <mxPoint x="670" y="2040" as="sourcePoint" />
            <mxPoint x="720" y="1990" as="targetPoint" />
          </mxGeometry>
        </mxCell>
        <mxCell id="Ss5F2WTiae59fG6rR6yu-82" value="" style="verticalLabelPosition=bottom;verticalAlign=top;html=1;shape=mxgraph.basic.polygon;polyCoords=[[0.25,0],[0.75,0],[1,0.25],[1,0.75],[0.75,1],[0.25,1],[0,0.75],[0,0.25]];polyline=0;fillColor=#dae8fc;strokeColor=#6c8ebf;" vertex="1" parent="WIyWlLk6GJQsqaUBKTNV-1">
          <mxGeometry x="530" y="2310" width="410" height="360" as="geometry" />
        </mxCell>
        <mxCell id="Ss5F2WTiae59fG6rR6yu-83" value="" style="verticalLabelPosition=bottom;verticalAlign=top;html=1;shape=mxgraph.basic.polygon;polyCoords=[[0.25,0],[0.75,0],[1,0.25],[1,0.75],[0.75,1],[0.25,1],[0,0.75],[0,0.25]];polyline=0;fillColor=#d5e8d4;strokeColor=#82b366;" vertex="1" parent="WIyWlLk6GJQsqaUBKTNV-1">
          <mxGeometry x="730" y="2430" width="70" height="80" as="geometry" />
        </mxCell>
        <mxCell id="Ss5F2WTiae59fG6rR6yu-84" value="" style="verticalLabelPosition=bottom;verticalAlign=top;html=1;shape=mxgraph.basic.donut;dx=25;fillColor=#ffe6cc;strokeColor=#d79b00;" vertex="1" parent="WIyWlLk6GJQsqaUBKTNV-1">
          <mxGeometry x="727" y="2430" width="80" height="80" as="geometry" />
        </mxCell>
        <mxCell id="Ss5F2WTiae59fG6rR6yu-85" value="Actor" style="shape=umlActor;verticalLabelPosition=bottom;verticalAlign=top;html=1;outlineConnect=0;" vertex="1" parent="WIyWlLk6GJQsqaUBKTNV-1">
          <mxGeometry x="260" y="2410" width="30" height="60" as="geometry" />
        </mxCell>
        <mxCell id="Ss5F2WTiae59fG6rR6yu-86" value="20 Meter" style="endArrow=classic;startArrow=classic;html=1;rounded=0;exitX=1;exitY=1;exitDx=0;exitDy=0;exitPerimeter=0;" edge="1" parent="WIyWlLk6GJQsqaUBKTNV-1" source="Ss5F2WTiae59fG6rR6yu-85" target="Ss5F2WTiae59fG6rR6yu-83">
          <mxGeometry width="50" height="50" relative="1" as="geometry">
            <mxPoint x="650" y="2470" as="sourcePoint" />
            <mxPoint x="700" y="2420" as="targetPoint" />
          </mxGeometry>
        </mxCell>
      </root>
    </mxGraphModel>
  </diagram>
</mxfile>
